<svg id="OBJECTS" xmlns="http://www.w3.org/2000/svg" viewBox="0 0 214.43 223.3"><defs><style>.cls-1{fill:#b3d4f9;}.cls-2{fill:#98b5d6;}.cls-3{fill:#b2ceee;}.cls-4{fill:#badaff;}</style></defs><title>3680787</title><circle class="cls-1" cx="108.19" cy="112.84" r="68.44" transform="translate(-26.38 192.39) rotate(-76.79)"/><path class="cls-2" d="M149.18,155.2c-29.58,11.09-62.85,7.39-77.64-18.49-19.23-32.05-2.33-78,31.41-92.05a68.41,68.41,0,1,0,71.13,86.51C168.64,141.42,161.39,150,149.18,155.2Z"/><path class="cls-2" d="M72.71,70.39A88.26,88.26,0,0,0,64,61.54c-3.69-3.44-8.64-9.69-12.8-12.31C52.78,47.07,56.86,47,59,45.38,65,53.93,66.92,61.87,72.71,70.39Z"/><path class="cls-2" d="M67.6,35.58c1.58,2.84-3.36,8.62-11,12.91s-15.2,5.44-16.78,2.6,3.35-8.63,11-12.91S66,32.73,67.6,35.58Z"/><path class="cls-1" d="M100.38,57.88a87.13,87.13,0,0,0-1-12.34c-.64-5,.36-12.55-1.17-17.22,2.57-.68,5,1.41,7.62,1.57C104.94,40.27,101.37,47.63,100.38,57.88Z"/><path class="cls-1" d="M118.69,27.84c-.6,3.2-8.1,4.49-16.75,2.87S86.77,25.19,87.37,22s8.09-4.49,16.74-2.88S119.28,24.64,118.69,27.84Z"/><path class="cls-1" d="M134.65,63.59a87.56,87.56,0,0,0,7.15-10.11c2.72-4.24,7.84-8.89,9.67-13.45,2.4,1.12,3.4,3.78,5.33,5.6C149.45,53,142,56.37,134.65,63.59Z"/><path class="cls-1" d="M168,52.33c-2.52,2.07-9.09-1.76-14.68-8.55s-8.08-14-5.56-16,9.08,1.76,14.67,8.55S170.49,50.26,168,52.33Z"/><path class="cls-1" d="M158.83,85.9A87.43,87.43,0,0,0,170,80.43c4.41-2.43,10.14-4.15,13.93-7.28,1.57,2.13,2.17,5,3,7.54C176.89,83.69,168.73,83.06,158.83,85.9Z"/><path class="cls-1" d="M192.21,93.17c-3.2.62-7.15-5.88-8.82-14.52s-.42-16.14,2.78-16.76,7.14,5.89,8.81,14.52S195.41,92.56,192.21,93.17Z"/><path class="cls-1" d="M162.53,129.78a86.5,86.5,0,0,0,12.38.42c5-.06,10.91,1.13,15.73.15.38,2.62-.46,5.45-.93,8.06C179.5,136.34,172.61,132,162.53,129.78Z"/><path class="cls-1" d="M188.65,150.49c-3.11-1-3.52-8.56-.92-17s7.24-14.44,10.35-13.47,3.53,8.56.92,17S191.77,151.46,188.65,150.49Z"/><path class="cls-2" d="M53.68,100.11a87.77,87.77,0,0,0-12.37-.56c-5,0-13.72-1-18.55-.13-.35-2.63,3.35-5.64,3.84-8.25C36.79,93.36,43.64,97.83,53.68,100.11Z"/><path class="cls-2" d="M26.2,78.14c3.1,1,3.43,8.6.73,17s-7.4,14.36-10.5,13.36-3.43-8.6-.73-17S23.1,77.14,26.2,78.14Z"/><path class="cls-2" d="M56.41,135.27a87.81,87.81,0,0,0-9.74,7.65c-3.82,3.29-10.31,6.93-13.37,10.78-2-1.76-1.92-5.24-3.25-7.55C39.21,141.17,47.31,140.1,56.41,135.27Z"/><path class="cls-2" d="M21.25,136.54c3-1.26,8.21,4.28,11.62,12.39s3.75,15.71.75,17S25.41,161.62,22,153.51,18.25,137.81,21.25,136.54Z"/><path class="cls-2" d="M73.52,159.75A88,88,0,0,0,71.1,171.9c-.76,5-2.88,10.58-2.69,15.49-2.66,0-5.31-1.34-7.82-2.22C64.29,175.42,69.75,169.34,73.52,159.75Z"/><path class="cls-2" d="M49.26,182.79c1.46-2.91,9-2.09,16.89,1.84s13.07,9.49,11.62,12.4-9,2.09-16.89-1.84S47.81,185.71,49.26,182.79Z"/><path class="cls-2" d="M111,169.61a87.73,87.73,0,0,0,5.9,10.9c2.59,4.32,4.54,10,7.82,13.64-2.08,1.65-4.94,2.36-7.43,3.28C113.86,187.57,114.17,179.4,111,169.61Z"/><path class="cls-2" d="M105.87,202.43c-.74-3.17,5.6-7.37,14.17-9.37s16.11-1.05,16.85,2.12-5.6,7.37-14.17,9.37S106.61,205.6,105.87,202.43Z"/><path class="cls-2" d="M146.2,157.52a88.6,88.6,0,0,0,10.18,7.06c4.27,2.69,8.55,6.86,13.13,8.65-1.1,2.41-3.34,4.33-5.15,6.28C156.9,172.23,153.49,164.8,146.2,157.52Z"/><path class="cls-2" d="M155.91,188.9c-2.09-2.5,1.68-9.1,8.43-14.75s13.91-8.21,16-5.71-1.68,9.1-8.43,14.75S158,191.4,155.91,188.9Z"/><path class="cls-3" d="M80.84,77.06c3.28,3.27,2.29,9.57-2.2,14.06S67.85,96.6,64.58,93.33s-2.29-9.57,2.2-14.06S77.57,73.79,80.84,77.06Z"/><path class="cls-3" d="M60.26,108.4c3.69-.14,6.83,3.86,7,8.93s-2.65,9.28-6.35,9.42-6.83-3.86-7-8.93S56.56,108.54,60.26,108.4Z"/><path class="cls-3" d="M122.66,159.25c.2,2.67-2.61,5.06-6.27,5.33s-6.79-1.66-7-4.33,2.6-5.06,6.27-5.34S122.46,156.58,122.66,159.25Z"/><path class="cls-3" d="M112.83,62.91c.28,3.68-3.6,7-8.65,7.35s-9.38-2.3-9.65-6,3.59-7,8.65-7.36S112.55,59.22,112.83,62.91Z"/><path class="cls-3" d="M156.46,104.84c3.69-.14,6.83,3.86,7,8.92s-2.65,9.28-6.34,9.42-6.84-3.86-7-8.92S152.77,105,156.46,104.84Z"/><path class="cls-3" d="M96.62,152.34c-2.31,4-8.65,4.68-14.15,1.5s-8.09-9-5.77-13,8.65-4.68,14.15-1.51S98.94,148.33,96.62,152.34Z"/><path class="cls-3" d="M134,79.38c3-3.51,9.38-3,14.18,1.17s6.25,10.36,3.23,13.87-9.38,3-14.19-1.18S131,82.88,134,79.38Z"/><path class="cls-3" d="M101.59,88c.64-3.46,5-5.54,9.76-4.66s8.06,4.41,7.42,7.87-5,5.54-9.76,4.65S100.94,91.44,101.59,88Z"/><path class="cls-3" d="M112.68,118.85c-1.47-3.5,1.22-8,6-10s9.89-.83,11.37,2.67-1.23,8-6,10S114.16,122.35,112.68,118.85Z"/><path class="cls-3" d="M89.14,122.54c-3,.75-6.19-1.94-7.21-6s.55-8,3.51-8.71,6.19,1.94,7.21,6S92.1,121.8,89.14,122.54Z"/><path class="cls-3" d="M145.71,134.26c2.31,4-.27,9.84-5.77,13s-11.84,2.51-14.15-1.5.26-9.84,5.77-13S143.39,130.25,145.71,134.26Z"/><path class="cls-3" d="M61.94,36.59c.3.87-1.14,2.15-3.21,2.87s-4,.62-4.3-.25,1.14-2.14,3.21-2.87S61.63,35.73,61.94,36.59Z"/><path class="cls-3" d="M115.75,25.67c-.29.87-2.21,1-4.29.29s-3.53-2-3.24-2.84,2.22-1,4.3-.29S116.05,24.81,115.75,25.67Z"/><path class="cls-3" d="M167.18,49.88c-.78.49-2.35-.63-3.51-2.49s-1.49-3.76-.71-4.24,2.34.63,3.51,2.49S168,49.4,167.18,49.88Z"/><path class="cls-3" d="M192.8,89.88c-.91,0-1.72-1.72-1.8-3.92s.59-4,1.51-4,1.71,1.72,1.79,3.91S193.71,89.84,192.8,89.88Z"/><path class="cls-3" d="M189.79,148.75c-.81-.42-.63-2.34.4-4.28s2.51-3.17,3.32-2.74.63,2.34-.4,4.28S190.59,149.18,189.79,148.75Z"/><path class="cls-4" d="M159.46,187.68c-.43-.81.8-2.29,2.74-3.31s3.86-1.2,4.29-.4-.8,2.29-2.75,3.32S159.88,188.49,159.46,187.68Z"/><path class="cls-4" d="M109.33,202.2c0-.91,1.78-1.65,4-1.65s4,.74,4,1.65-1.78,1.65-4,1.65S109.33,203.11,109.33,202.2Z"/><path class="cls-4" d="M65.12,194.31c.26-.88,2.18-1.08,4.28-.46s3.6,1.83,3.34,2.71-2.17,1.08-4.28.46S64.86,195.18,65.12,194.31Z"/><path class="cls-4" d="M26.45,156c.77-.49,2.34.63,3.51,2.49s1.49,3.76.71,4.24-2.34-.63-3.51-2.49S25.67,156.52,26.45,156Z"/><path class="cls-4" d="M16.85,98.09c.91.08,1.5,1.91,1.32,4.1s-1.06,3.9-2,3.83-1.5-1.91-1.32-4.1S15.94,98,16.85,98.09Z"/></svg>