<svg id="OBJECTS" xmlns="http://www.w3.org/2000/svg" viewBox="0 0 214.43 223.3"><defs><style>.cls-1{fill:#c93838;}.cls-2{fill:#a32222;}.cls-3{fill:#bd2828;}.cls-4{fill:#cf2727;}</style></defs><title>3680787</title><circle class="cls-1" cx="108.63" cy="113.14" r="75.29"/><path class="cls-2" d="M153.73,159.73c-32.54,12.2-69.15,8.14-85.42-20.33-21.15-35.26-2.56-85.78,34.56-101.26a75.25,75.25,0,1,0,78.24,95.16C175.13,144.58,167.15,154,153.73,159.73Z"/><path class="cls-2" d="M69.6,66.44a95.26,95.26,0,0,0-9.54-9.74C56,52.92,50.56,46,46,43.16c1.7-2.38,6.19-2.51,8.55-4.23C61.08,48.33,63.23,57.06,69.6,66.44Z"/><path class="cls-2" d="M64,28.14c1.74,3.13-3.7,9.49-12.15,14.2s-16.72,6-18.47,2.87S37.06,35.72,45.51,31,62.23,25,64,28.14Z"/><path class="cls-1" d="M100,52.68A97.26,97.26,0,0,0,98.93,39.1c-.71-5.5.4-13.81-1.28-18.94,2.82-.75,5.45,1.55,8.37,1.73C105.06,33.31,101.13,41.4,100,52.68Z"/><path class="cls-1" d="M120.18,19.63c-.66,3.52-8.9,4.94-18.42,3.16s-16.69-6.07-16-9.59,8.9-4.94,18.41-3.17S120.84,16.11,120.18,19.63Z"/><path class="cls-1" d="M137.74,59a96.39,96.39,0,0,0,7.87-11.12c3-4.67,8.62-9.78,10.63-14.8,2.64,1.24,3.74,4.15,5.86,6.16C154,47.34,145.82,51,137.74,59Z"/><path class="cls-1" d="M174.4,46.57c-2.76,2.28-10-1.93-16.14-9.41s-8.89-15.38-6.13-17.65,10,1.93,16.15,9.41S177.17,44.29,174.4,46.57Z"/><path class="cls-1" d="M164.34,83.5a95.51,95.51,0,0,0,12.23-6c4.86-2.68,11.16-4.57,15.32-8,1.73,2.35,2.39,5.53,3.29,8.31C184.2,81.07,175.23,80.38,164.34,83.5Z"/><path class="cls-1" d="M201.06,91.5c-3.52.68-7.86-6.47-9.7-16s-.47-17.76,3-18.44,7.86,6.47,9.7,16S204.58,90.82,201.06,91.5Z"/><path class="cls-1" d="M168.41,131.77a95,95,0,0,0,13.62.46c5.55-.06,12,1.24,17.3.16.42,2.89-.51,6-1,8.88C187.08,139,179.49,134.15,168.41,131.77Z"/><path class="cls-1" d="M197.15,154.56c-3.43-1.06-3.88-9.42-1-18.66s8-15.88,11.39-14.82,3.88,9.41,1,18.66S200.57,155.62,197.15,154.56Z"/><path class="cls-2" d="M48.67,99.13a97.79,97.79,0,0,0-13.61-.61c-5.55,0-15.09-1.16-20.4-.15-.39-2.89,3.68-6.2,4.22-9.07C30.09,91.7,37.62,96.63,48.67,99.13Z"/><ellipse class="cls-2" cx="13.06" cy="91.65" rx="17.52" ry="6.49" transform="translate(-78.17 75.96) rotate(-72.13)"/><path class="cls-2" d="M51.67,137.82A96.42,96.42,0,0,0,41,146.23c-4.2,3.61-11.33,7.62-14.7,11.86-2.18-1.94-2.11-5.77-3.57-8.3C32.74,144.3,41.66,143.12,51.67,137.82Z"/><ellipse class="cls-2" cx="19.8" cy="155.36" rx="6.49" ry="17.52" transform="translate(-58.75 19.87) rotate(-22.84)"/><path class="cls-2" d="M70.49,164.74a97.61,97.61,0,0,0-2.66,13.37c-.84,5.48-3.17,11.63-3,17-2.92,0-5.84-1.47-8.6-2.44C60.34,182,66.35,175.29,70.49,164.74Z"/><path class="cls-2" d="M43.81,190.09c1.6-3.21,9.92-2.3,18.58,2s14.37,10.43,12.77,13.63-9.92,2.3-18.58-2S42.21,193.3,43.81,190.09Z"/><path class="cls-2" d="M111.67,175.59a95.93,95.93,0,0,0,6.49,12c2.85,4.75,5,11,8.6,15-2.28,1.82-5.43,2.6-8.17,3.61C114.87,195.34,115.22,186.35,111.67,175.59Z"/><path class="cls-2" d="M106.08,211.69c-.82-3.49,6.16-8.1,15.59-10.3s17.72-1.16,18.54,2.33S134,211.83,124.62,214,106.89,215.19,106.08,211.69Z"/><path class="cls-2" d="M150.45,162.28a96.18,96.18,0,0,0,11.19,7.78c4.7,2.95,9.41,7.54,14.45,9.51-1.22,2.65-3.68,4.77-5.67,6.91C162.22,178.47,158.47,170.29,150.45,162.28Z"/><path class="cls-2" d="M161.13,196.81c-2.3-2.75,1.85-10,9.27-16.23s15.3-9,17.6-6.28-1.85,10-9.27,16.23S163.43,199.56,161.13,196.81Z"/><ellipse class="cls-3" cx="69.6" cy="82.72" rx="12.65" ry="9.22" transform="translate(-38.11 73.44) rotate(-45)"/><path class="cls-3" d="M55.9,108.25c4.06-.15,7.52,4.25,7.73,9.82s-2.92,10.21-7,10.36-7.52-4.24-7.73-9.81S51.84,108.4,55.9,108.25Z"/><path class="cls-3" d="M124.55,164.19c.22,2.94-2.87,5.57-6.9,5.87s-7.47-1.84-7.69-4.77,2.87-5.57,6.9-5.87S124.33,161.26,124.55,164.19Z"/><path class="cls-3" d="M113.74,58.21c.3,4-4,7.67-9.52,8.09S93.9,63.77,93.6,59.72s4-7.68,9.52-8.1S113.43,54.16,113.74,58.21Z"/><path class="cls-3" d="M161.73,104.33c4.06-.15,7.52,4.25,7.73,9.82s-2.92,10.21-7,10.36-7.52-4.24-7.73-9.81S157.67,104.48,161.73,104.33Z"/><path class="cls-3" d="M95.91,156.59c-2.55,4.41-9.52,5.15-15.57,1.66s-8.9-9.91-6.35-14.32,9.52-5.15,15.57-1.66S98.45,152.17,95.91,156.59Z"/><path class="cls-3" d="M137.07,76.33c3.33-3.86,10.31-3.28,15.6,1.29s6.88,11.4,3.55,15.25-10.32,3.28-15.61-1.29S133.74,80.18,137.07,76.33Z"/><path class="cls-3" d="M101.37,85.79c.71-3.8,5.52-6.1,10.74-5.12s8.87,4.84,8.16,8.65-5.52,6.09-10.74,5.12S100.66,89.59,101.37,85.79Z"/><path class="cls-3" d="M113.57,119.75c-1.62-3.85,1.35-8.78,6.63-11s10.89-.9,12.51,3-1.35,8.78-6.63,11S115.19,123.6,113.57,119.75Z"/><path class="cls-3" d="M87.68,123.81c-3.26.82-6.81-2.13-7.94-6.61s.61-8.75,3.86-9.57,6.82,2.13,7.94,6.6S90.94,123,87.68,123.81Z"/><path class="cls-3" d="M149.91,136.7c2.54,4.42-.3,10.82-6.35,14.32s-13,2.75-15.57-1.66.29-10.82,6.35-14.32S147.36,132.29,149.91,136.7Z"/><path class="cls-3" d="M57.75,29.26c.33.95-1.25,2.36-3.53,3.16s-4.4.67-4.73-.28S50.74,29.78,53,29,57.42,28.31,57.75,29.26Z"/><path class="cls-3" d="M117,17.25c-.32.95-2.43,1.09-4.72.32s-3.88-2.18-3.56-3.13,2.44-1.09,4.72-.32S117.27,16.3,117,17.25Z"/><path class="cls-3" d="M173.52,43.88c-.85.53-2.58-.69-3.86-2.74S168,37,168.88,36.47s2.58.69,3.86,2.74S174.37,43.35,173.52,43.88Z"/><path class="cls-3" d="M201.71,87.87c-1,0-1.89-1.89-2-4.3s.65-4.4,1.66-4.44,1.89,1.89,2,4.31S202.71,87.84,201.71,87.87Z"/><path class="cls-3" d="M198.4,152.65c-.89-.47-.69-2.59.44-4.72s2.76-3.48,3.65-3,.69,2.58-.44,4.71S199.28,153.12,198.4,152.65Z"/><path class="cls-4" d="M165,195.47c-.47-.89.88-2.52,3-3.65s4.25-1.32,4.72-.43-.89,2.52-3,3.65S165.5,196.36,165,195.47Z"/><path class="cls-4" d="M109.88,211.44c0-1,2-1.82,4.38-1.82s4.37.82,4.37,1.82-2,1.82-4.37,1.82S109.88,212.44,109.88,211.44Z"/><path class="cls-4" d="M61.25,202.76c.29-1,2.39-1.19,4.71-.51s4,2,3.68,3-2.39,1.18-4.71.5S61,203.72,61.25,202.76Z"/><path class="cls-4" d="M18.71,160.66c.85-.54,2.58.69,3.86,2.74s1.64,4.13.79,4.66-2.58-.69-3.87-2.73S17.86,161.19,18.71,160.66Z"/><path class="cls-4" d="M8.15,96.91c1,.09,1.65,2.1,1.45,4.51s-1.16,4.29-2.16,4.21-1.66-2.1-1.46-4.5S7.15,96.83,8.15,96.91Z"/></svg>